<?xml version="1.0" encoding="utf-8"?>
<!-- Generator: Adobe Illustrator 26.0.1, SVG Export Plug-In . SVG Version: 6.00 Build 0)  -->
<svg version="1.1" id="Capa_1" xmlns="http://www.w3.org/2000/svg" xmlns:xlink="http://www.w3.org/1999/xlink" x="0px" y="0px"
	 viewBox="0 0 791 395.5" style="enable-background:new 0 0 791 395.5;" xml:space="preserve">
<style type="text/css">
	.st0{fill-rule:evenodd;clip-rule:evenodd;fill:#59AAD3;}
	.st1{fill-rule:evenodd;clip-rule:evenodd;fill:#2CD0B0;stroke:#338273;stroke-miterlimit:10;}
	.st2{fill-rule:evenodd;clip-rule:evenodd;fill:#990000;stroke:#BA3E3E;stroke-miterlimit:10;}
	.st3{fill-rule:evenodd;clip-rule:evenodd;fill:#B5C588;stroke:#C4DB71;stroke-miterlimit:10;}
	.st4{fill-rule:evenodd;clip-rule:evenodd;fill:#FFFF00;stroke:#A39F1C;stroke-miterlimit:10;}
	.st5{fill-rule:evenodd;clip-rule:evenodd;fill:#A39F1C;stroke:#FFFF00;stroke-miterlimit:10;}
	.st6{display:none;}
	.st7{display:inline;fill:#E0B017;stroke:#7A4B0C;stroke-miterlimit:10;}
	.st8{display:inline;}
	.st9{font-family:'Calibri-Bold';}
	.st10{font-size:8px;}
	.st11{font-size:7px;}
</style>
<g transform="matrix(1.0, 0.0, 0.0, 1.0, 0.0, 0.0)">
	<path class="st0" d="M797.5,498.1h-800v-600h800V498.1"/>
</g>
<image style="overflow:visible;" width="3297" height="1638" xlink:href="AA484DAC.png"  transform="matrix(0.24 0 0 0.24 4.8 6.46)">
</image>
<g id="F1">
	<circle id="C1" class="st1" cx="179.5" cy="114" r="2"/>
</g>
<g id="F2">
	<circle id="C2" class="st2" cx="148.8" cy="111.2" r="2.2"/>
</g>
<g id="F3">
	<circle id="C3" class="st3" cx="140.6" cy="124.1" r="2.1"/>
</g>
<g id="F4">
	<circle id="C4" class="st2" cx="339.5" cy="84" r="2"/>
</g>
<g id="F5">
	<circle id="C5" class="st3" cx="347.5" cy="84" r="2"/>
</g>
<g id="F6">
	<circle id="C6" class="st2" cx="354.5" cy="86" r="2"/>
</g>
<g id="F8">
	<circle id="C8" class="st1" cx="360.5" cy="83" r="2"/>
</g>
<g id="F9">
	<circle id="C9" class="st1" cx="354.5" cy="80" r="2"/>
</g>
<g id="F10">
	<circle id="C10" class="st3" cx="354.5" cy="80" r="2"/>
</g>
<g id="F11">
	<circle id="C11" class="st1" cx="351.5" cy="74" r="2"/>
</g>
<g id="F12">
	<circle id="C12" class="st3" cx="356.5" cy="69" r="2"/>
</g>
<g id="F13">
	<circle id="C13" class="st1" cx="370.5" cy="87" r="2"/>
</g>
<g id="F14">
	<circle id="C14" class="st3" cx="391.5" cy="89" r="2"/>
</g>
<g id="F15">
	<circle id="C15" class="st2" cx="417.5" cy="89" r="2"/>
</g>
<g id="F16">
	<circle id="C16" class="st1" cx="432.5" cy="91" r="2"/>
</g>
<g id="F17">
	<circle id="C17" class="st4" cx="427.5" cy="69" r="2"/>
</g>
<g id="F18">
	<circle id="C18" class="st5" cx="549" cy="178.7" r="2"/>
</g>
<g id="Recuadro1" class="st6">
	<path class="st7" d="M205.8,138.4h-54.6c-2.8,0-5-2.2-5-5v-1c0-2.8,2.2-5,5-5h54.6c2.8,0,5,2.2,5,5v1
		C210.8,136.2,208.6,138.4,205.8,138.4z"/>
	<text transform="matrix(1 0 0 1 156.301 135.2915)" class="st8 st9 st10">Ray Bradbury</text>
</g>
<g id="Recuadro2" class="st6">
	<path class="st7" d="M208.8,106.4h-54.6c-2.8,0-5-2.2-5-5v-1c0-2.8,2.2-5,5-5h54.6c2.8,0,5,2.2,5,5v1
		C213.8,104.2,211.6,106.4,208.8,106.4z"/>
	<text transform="matrix(1 0 0 1 159.301 103.2915)" class="st8 st9 st10">Philip k. Dick</text>
</g>
<g id="Recuadro3" class="st6">
	<path class="st7" d="M249.2,121.9h-54.6c-2.8,0-5-2.2-5-5v-1c0-2.8,2.2-5,5-5h54.6c2.8,0,5,2.2,5,5v1
		C254.2,119.7,252,121.9,249.2,121.9z"/>
	<text transform="matrix(1 0 0 1 197.7773 119.0275)" class="st8 st9 st11">Herman Melville</text>
</g>
<g id="Recuadro4" class="st6">
	<path class="st7" d="M329.5,96.8h-44c-2.8,0-5-2.2-5-5v-1c0-2.8,2.2-5,5-5h44c2.8,0,5,2.2,5,5v1C334.5,94.6,332.3,96.8,329.5,96.8z
		"/>
	<text transform="matrix(1 0 0 1 290.0038 94.2004)" class="st8 st9 st11">Oscar Wilde</text>
</g>
<g id="Recuadro5" class="st6">
	<path class="st7" d="M341.4,78.8h-58.7c-2.8,0-5-2.2-5-5v-1c0-2.8,2.2-5,5-5h58.7c2.8,0,5,2.2,5,5v1
		C346.4,76.6,344.2,78.8,341.4,78.8z"/>
	<text transform="matrix(1 0 0 1 283.7537 76.2004)" class="st8 st9 st11">Arthur Conan Doyle</text>
</g>
<g id="Recuadro6" class="st6">
	<path class="st7" d="M433.6,82.1h-66.1c-2.8,0-5-2.2-5-5v-1c0-2.8,2.2-5,5-5h66.1c2.8,0,5,2.2,5,5v1
		C438.6,79.9,436.3,82.1,433.6,82.1z"/>
	<text transform="matrix(1 0 0 1 366.7529 79.234)" class="st8 st9 st11">Robert Louis Stevenson </text>
</g>
<g id="Recuadro7" class="st6">
	<path class="st7" d="M407.2,82.8h-41c-2.8,0-5-2.2-5-5v-1c0-2.8,2.2-5,5-5h41c2.8,0,5,2.2,5,5v1C412.2,80.5,410,82.8,407.2,82.8z"
		/>
	<text transform="matrix(1 0 0 1 369.1096 78.8858)" class="st8 st9 st11">Lewis Carrol</text>
</g>
<g id="Recuadro8" class="st6">
	<path class="st7" d="M539.9,184.2h-42.6c-2.8,0-5-2.2-5-5v-1c0-2.8,2.2-5,5-5h42.6c2.8,0,5,2.2,5,5v1
		C544.9,182,542.6,184.2,539.9,184.2z"/>
	<text transform="matrix(1 0 0 1 495.0842 180.3339)" class="st8 st9 st11">Rudyard Kipling</text>
</g>
<g id="Recuadro9" class="st6">
	<path class="st7" d="M466.8,85.5h-32.5c-2.8,0-5-2.2-5-5v-1c0-2.8,2.2-5,5-5h32.5c2.8,0,5,2.2,5,5v1
		C471.8,83.3,469.6,85.5,466.8,85.5z"/>
	<text transform="matrix(1 0 0 1 432.0886 81.6339)" class="st8 st9 st11">Issac Asimov</text>
</g>
<g id="Recuadro10" class="st6">
	<path class="st7" d="M476.9,105H437c-2.8,0-5-2.2-5-5v-1c0-2.8,2.2-5,5-5h39.9c2.8,0,5,2.2,5,5v1C481.9,102.7,479.7,105,476.9,105z
		"/>
	<text transform="matrix(1 0 0 1 434.8989 101.0964)" class="st8 st9 st11">Joseph Conrad</text>
</g>
<g id="Recuadro11" class="st6">
	<path class="st7" d="M455.3,105.5h-39.1c-2.8,0-5-2.2-5-5v-1c0-2.8,2.2-5,5-5h39.1c2.8,0,5,2.2,5,5v1
		C460.3,103.3,458.1,105.5,455.3,105.5z"/>
	<text transform="matrix(1 0 0 1 415.0886 101.6339)" class="st8 st9 st11">Stanislaw Lem</text>
</g>
<g id="Recuadro12" class="st6">
	<path class="st7" d="M415.3,105.5h-39.1c-2.8,0-5-2.2-5-5v-1c0-2.8,2.2-5,5-5h39.1c2.8,0,5,2.2,5,5v1
		C420.3,103.3,418.1,105.5,415.3,105.5z"/>
	<text transform="matrix(1 0 0 1 379.0886 101.6339)" class="st8 st9 st11">Karel Capek</text>
</g>
<g id="Recuadro13" class="st6">
	<path class="st7" d="M399,105.1h-50.6c-2.8,0-5-2.2-5-5v-1c0-2.8,2.2-5,5-5H399c2.8,0,5,2.2,5,5v1C404,102.9,401.7,105.1,399,105.1
		z"/>
	<text transform="matrix(1 0 0 1 351.1886 101.2339)" class="st8 st9 st11">George Simenon</text>
</g>
<g id="Recuadro14" class="st6">
	<path class="st7" d="M379,101.3h-37.4c-2.8,0-5-2.2-5-5v-1c0-2.8,2.2-5,5-5H379c2.8,0,5,2.2,5,5v1C384,99.1,381.8,101.3,379,101.3z
		"/>
	<text transform="matrix(1 0 0 1 339.5129 97.4518)" class="st8 st9 st11">Aldous Huxley</text>
</g>
<g id="Recuadro15" class="st6">
	<path class="st7" d="M346,101.3h-42.3c-2.8,0-5-2.2-5-5v-1c0-2.8,2.2-5,5-5H346c2.8,0,5,2.2,5,5v1C351,99.1,348.8,101.3,346,101.3z
		"/>
	<text transform="matrix(1 0 0 1 301.5129 97.4518)" class="st8 st9 st11">Arthur C. Clarke</text>
</g>
</svg>
